<?xml version="1.0" encoding="UTF-8"?>
<!-- Generator: Adobe Illustrator 19.1.0, SVG Export Plug-In . SVG Version: 6.00 Build 0)  -->
<svg version="1.1" id="rabbitmq" xmlns="http://www.w3.org/2000/svg" xmlns:xlink="http://www.w3.org/1999/xlink" x="0px" y="0px" viewBox="444 257.1 1500 278.9" style="enable-background:new 444 257.1 1500 278.9;" xml:space="preserve">
<style type="text/css">
	.st0{fill:none;}
	.st1{enable-background:new    ;}
	.st2{fill:#F26722;}
	.st3{fill:#A9B5AF;}
</style>
<rect x="697.2" y="319.3" class="st0" width="1255.4" height="233.1"/>
<g class="st1">
	<path class="st2" d="M740.9,518.1H722V289h54.7c9.1,0,17.6,1.1,25.4,3.2c7.8,2.2,14.6,5.7,20.3,10.5c5.7,4.9,10.1,11.2,13.3,18.9   c3.2,7.7,4.7,17.3,4.7,28.5c0,8.4-1.2,16.1-3.7,23c-2.5,6.9-5.8,12.9-10,18c-4.2,5.1-9.2,9.1-15,12.1c-5.8,3-12.1,5-18.9,5.8   l54.5,109h-23.2l-51.6-107.1h-31.6L740.9,518.1L740.9,518.1z M740.9,391h32.9c15.3,0,27-3.4,35.3-10.2c8.2-6.8,12.4-17,12.4-30.6   c0-7.5-1.1-13.9-3.4-19.1s-5.4-9.4-9.5-12.6c-4-3.2-8.9-5.6-14.7-7.1s-12.2-2.3-19.2-2.3H741L740.9,391L740.9,391z"/>
	<path class="st2" d="M953,420.1c0-13.1-2.8-22.8-8.4-29.2c-5.6-6.4-13.8-9.6-24.5-9.6c-7.4,0-14.2,1.6-20.5,4.9   c-6.3,3.2-11.7,7.6-16,12.9l-10-14.6c5.1-6.3,11.8-11.4,20.1-15.5c8.3-4.1,17.8-6.1,28.3-6.1c6.7,0,12.9,1.1,18.7,3.4   s10.9,5.7,15.3,10.2s7.8,10.2,10.3,17.2c2.5,6.9,3.7,15,3.7,24.3v66.3c0,5.8,0.2,11.9,0.5,18.1c0.3,6.3,0.9,11.5,1.6,15.9h-16   c-0.5-3.7-1-7.7-1.3-12c-0.4-4.3-0.5-8.5-0.5-12.6h-0.5c-5.6,10.1-12,17.4-19.1,21.8c-7.1,4.4-15.7,6.6-25.6,6.6   c-4.7,0-9.6-0.8-14.6-2.4c-5-1.6-9.6-4.3-13.7-8c-4.1-3.7-7.5-8.4-10.3-14.3c-2.7-5.8-4.1-13-4.1-21.4c0-11.7,2.4-20.9,7.2-27.8   c4.8-6.8,11.3-11.9,19.3-15.3c8.1-3.4,17.3-5.5,27.8-6.5c10.4-1,21.3-1.5,32.5-1.5v-4.8H953z M947.7,442.4   c-7.4,0-14.8,0.4-22.2,1.1c-7.5,0.8-14.2,2.3-20.3,4.5c-6.1,2.3-11,5.6-14.9,9.9c-3.9,4.3-5.8,10-5.8,17.1c0,5.4,0.8,9.9,2.5,13.6   c1.7,3.7,3.9,6.6,6.7,8.9c2.8,2.3,5.9,3.9,9.3,4.9c3.4,1,6.9,1.5,10.4,1.5c6.3,0,11.9-1.3,16.8-4s9-6.4,12.4-11   c3.3-4.6,5.9-10,7.6-16c1.8-6,2.6-12.4,2.6-19.1v-11.3h-5.1V442.4z"/>
	<path class="st2" d="M1034.3,492.6v25.6h-17.9V273.5h17.9v119.4h0.5c5.3-9.9,12.1-17.4,20.5-22.5c8.4-5.1,17.1-7.6,26-7.6   c9.6,0,18.4,2.1,26.2,6.1c7.8,4.1,14.5,9.7,20,16.8c5.5,7.1,9.8,15.5,12.9,25.2s4.6,20.2,4.6,31.4s-1.5,21.7-4.6,31.4   c-3.1,9.7-7.4,18.1-12.9,25.2c-5.5,7.1-12.2,12.7-20,16.8c-7.8,4.1-16.5,6.1-26.2,6.1c-8.9,0-17.6-2.5-26-7.4   c-8.4-4.9-15.3-12.3-20.5-22h-0.5V492.6z M1126.1,442.4c0-8.4-1.1-16.3-3.2-23.8c-2.1-7.4-5.1-13.9-9.1-19.4   c-3.9-5.5-8.8-9.9-14.6-13.1c-5.8-3.2-12.4-4.9-19.7-4.9c-6.8,0-13.2,1.6-18.9,4.7c-5.8,3.1-10.8,7.4-15,12.9s-7.5,12-9.9,19.4   c-2.4,7.4-3.6,15.5-3.6,24.1c0,8.6,1.2,16.7,3.6,24.1c2.4,7.4,5.7,13.9,9.9,19.3c4.2,5.4,9.2,9.7,15,12.8s12.1,4.7,18.9,4.7   c7.4,0,13.9-1.6,19.7-4.7c5.8-3.1,10.7-7.4,14.6-12.9c3.9-5.5,7-12,9.1-19.4C1125,458.8,1126.1,450.8,1126.1,442.4z"/>
	<path class="st2" d="M1201.8,492.6v25.6h-17.9V273.5h17.9v119.4h0.5c5.3-9.9,12.1-17.4,20.5-22.5c8.4-5.1,17.1-7.6,26-7.6   c9.6,0,18.4,2.1,26.2,6.1c7.8,4.1,14.5,9.7,20,16.8c5.5,7.1,9.8,15.5,12.9,25.2s4.6,20.2,4.6,31.4s-1.5,21.7-4.6,31.4   c-3.1,9.7-7.4,18.1-12.9,25.2c-5.5,7.1-12.2,12.7-20,16.8c-7.8,4.1-16.5,6.1-26.2,6.1c-8.9,0-17.6-2.5-26-7.4   c-8.4-5-15.3-12.3-20.5-22h-0.5V492.6z M1293.6,442.4c0-8.4-1.1-16.3-3.2-23.8c-2.1-7.5-5.1-13.9-9.1-19.4s-8.8-9.9-14.6-13.1   c-5.8-3.2-12.4-4.9-19.7-4.9c-6.8,0-13.2,1.6-18.9,4.7c-5.8,3.1-10.8,7.4-15,12.9s-7.5,12-9.9,19.4c-2.4,7.4-3.6,15.5-3.6,24.1   c0,8.6,1.2,16.7,3.6,24.1c2.4,7.4,5.7,13.9,9.9,19.3c4.2,5.4,9.2,9.7,15,12.8s12.1,4.7,18.9,4.7c7.4,0,13.9-1.6,19.7-4.7   c5.8-3.1,10.7-7.4,14.6-12.9c3.9-5.5,7-12,9.1-19.4C1292.5,458.8,1293.6,450.8,1293.6,442.4z"/>
	<path class="st2" d="M1372.8,308.5c0,4.5-1.3,8.3-3.9,11.2c-2.6,2.9-5.5,4.4-8.7,4.4s-6.1-1.5-8.7-4.4c-2.6-2.9-3.9-6.6-3.9-11.2   c0-4.5,1.3-8.3,3.9-11.2c2.6-2.9,5.5-4.4,8.7-4.4s6.1,1.5,8.7,4.4C1371.5,300.2,1372.8,303.9,1372.8,308.5z M1369.1,518.1h-17.9   V366.7h17.9V518.1z"/>
	<path class="st2" d="M1472.3,385.2h-34.7v88.3c0,5.6,0.4,10.2,1.3,13.9s2.1,6.5,3.8,8.6c1.7,2.1,3.6,3.5,5.9,4.2   c2.3,0.8,4.7,1.1,7.4,1.1c2.5,0,5-0.4,7.8-1.3c2.7-0.9,5.3-2,7.8-3.6l0.8,19.1c-3.2,1.5-6.4,2.6-9.9,3.4c-3.4,0.8-7.1,1.1-11.2,1.1   c-3.3,0-6.8-0.5-10.5-1.6c-3.7-1.1-7.1-3.1-10.3-6.1s-5.7-7.1-7.8-12.3c-2-5.2-3-12-3-20.4v-94.5h-25.5v-18.4h25.5V324h17.9v42.7   h34.7V385.2z"/>
</g>
<g class="st1">
	<path class="st3" d="M1596.4,478.7h0.3l62.3-189.6h28.9v229.1H1669v-199h-0.5l-67.3,199h-10l-67.3-199h-0.5v199h-18.9V289h28.9   L1596.4,478.7z"/>
	<path class="st3" d="M1928.1,518.1h-106.5c-13.5,0-26-2.9-37.5-8.7s-21.4-14-29.9-24.4c-8.4-10.5-15-22.9-19.7-37.2   c-4.7-14.3-7.1-30-7.1-47.1c0-17,2.4-32.7,7.1-47.1c4.7-14.3,11.3-26.7,19.7-37.2c8.4-10.5,18.4-18.6,29.9-24.4s24-8.7,37.5-8.7   c13.3,0,25.7,2.9,37.2,8.7s21.4,13.9,29.9,24.4c8.4,10.4,15,22.8,19.7,37.2c4.7,14.3,7.1,30,7.1,47c0,20.2-3.6,38.7-10.9,55.4   s-18.2,30.2-32.8,40.5v0.6h56.3L1928.1,518.1L1928.1,518.1z M1747.4,400.7c0,12.9,1.7,25.2,5.1,36.8c3.4,11.6,8.3,21.9,14.6,30.8   c6.3,8.9,14.1,16,23.3,21.3c9.2,5.3,19.6,7.9,31.2,7.9c11.4,0,21.7-2.6,30.9-7.9c9.2-5.3,17-12.4,23.4-21.3   c6.4-8.9,11.4-19.2,14.9-30.8s5.3-23.9,5.3-36.8c0-12.9-1.8-25.2-5.3-36.8s-8.5-21.9-14.9-30.8c-6.4-8.9-14.2-16-23.4-21.3   c-9.2-5.3-19.5-7.9-30.9-7.9c-11.6,0-22,2.6-31.2,7.9s-17,12.4-23.3,21.3c-6.3,8.9-11.2,19.2-14.6,30.8S1747.4,387.8,1747.4,400.7z   "/>
</g>
<path class="st2" d="M601.2,372.4v-97.8h-49.4v97.8h-48.4v-97.8h-50.8v243.2h249.2V372.4H601.2z M649.7,468.4  c-4.6,4.6-11.5,7.8-18.9,7.8h-3.2c-14.8,0-26.8-12-26.8-26.8c0-7.4,3.2-13.8,7.8-18.9c4.6-5.1,11.5-7.8,18.9-7.8h3.2  c14.8,0,26.8,12,26.8,26.8C657.1,456.9,654.3,463.8,649.7,468.4z"/>
</svg>